<mxfile host="app.diagrams.net" modified="2024-06-02T20:42:56.780Z" agent="Mozilla/5.0 (Windows NT 10.0; Win64; x64) AppleWebKit/537.36 (KHTML, like Gecko) Chrome/123.0.0.0 Safari/537.36 OPR/109.0.0.0 (Edition std-2)" version="24.4.13" etag="RnlrCRpi_c9GeJVQ6bnS" type="github">
  <diagram name="PÃ¡gina-1" id="DnxzuEXpx-YpEv0bY6lV">
    <mxGraphModel>
      <root>
        <mxCell id="0" />
        <mxCell id="1" parent="0" />
      </root>
    </mxGraphModel>
  </diagram>
</mxfile>
